<?xml version="1.0" encoding="UTF-8" standalone="no"?>
<!DOCTYPE svg PUBLIC "-//W3C//DTD SVG 1.1//EN" "http://www.w3.org/Graphics/SVG/1.1/DTD/svg11.dtd">
<svg xmlns="http://www.w3.org/2000/svg" version="1.1" viewBox="0.00 0.00 500.00 500.00">
<path stroke="#a3b6bf" stroke-width="2.00" fill="none" stroke-linecap="butt" vector-effect="non-scaling-stroke" d="
  M 243.13 107.02
  Q 227.64 107.25 215.75 107.46
  C 201.20 107.72 187.36 107.65 173.58 107.59
  C 168.42 107.57 163.49 107.99 158.33 108.17
  C 150.65 108.44 142.90 109.17 135.27 108.93
  Q 129.33 108.73 123.79 109.03
  Q 107.52 109.90 92.29 109.63
  Q 90.26 109.60 90.15 111.63
  C 89.44 125.34 89.09 138.95 87.87 152.48
  Q 86.71 165.44 85.85 176.50
  Q 85.72 178.13 86.02 179.87
  Q 86.11 180.40 86.58 180.65
  Q 88.01 181.41 89.73 181.21
  Q 96.24 180.46 102.67 180.80
  C 105.51 180.95 106.54 177.73 107.12 175.52
  Q 110.06 164.29 113.93 156.90
  C 118.46 148.25 127.57 139.74 137.65 137.70
  Q 141.65 136.89 143.00 136.80
  Q 154.57 136.06 166.98 135.40
  Q 170.18 135.23 170.19 138.44
  Q 170.22 145.01 169.94 152.18
  Q 167.48 214.69 164.93 276.46
  Q 164.20 294.29 161.82 311.76
  C 159.88 325.95 152.15 338.51 139.78 345.82
  Q 133.55 349.49 127.56 352.12
  Q 125.79 352.90 125.53 354.82
  Q 124.67 361.19 124.47 367.90
  A 1.11 1.10 0.8 0 0 125.58 369.03
  Q 159.16 368.97 189.79 369.02
  Q 198.94 369.03 209.74 368.59
  Q 222.97 368.06 236.26 368.29
  Q 239.66 368.35 239.70 365.12
  Q 239.77 359.17 239.47 353.80
  A 3.95 3.94 13.6 0 0 237.52 350.62
  Q 233.78 348.44 230.06 346.14
  Q 217.56 338.43 218.10 323.47
  Q 221.58 227.98 226.82 138.57
  Q 226.89 137.24 228.13 136.71
  C 230.49 135.71 233.70 135.18 236.45 135.14
  Q 242.47 135.07 248.69 134.78
  Q 250.28 134.71 251.67 135.57
  C 253.51 136.71 257.34 136.36 259.32 136.14
  Q 262.11 135.83 264.72 135.80
  Q 276.46 135.66 287.20 135.82
  Q 290.66 135.88 291.21 138.82
  Q 292.36 145.04 292.20 151.10
  Q 290.02 235.08 287.26 315.59
  Q 286.95 324.65 283.72 333.66
  C 281.57 339.64 277.02 344.88 271.10 347.20
  Q 266.17 349.13 260.39 350.76
  Q 259.77 350.93 259.45 351.48
  Q 258.65 352.83 258.56 354.60
  Q 258.20 362.06 258.46 368.19
  A 1.37 1.37 0.0 0 0 259.90 369.50
  Q 262.85 369.35 265.40 369.34
  Q 315.58 369.16 367.68 369.27
  Q 368.48 369.28 368.53 368.48
  Q 368.90 362.23 369.29 356.05
  C 369.45 353.50 368.96 351.20 366.08 350.42
  Q 363.23 349.64 360.51 348.98
  C 357.64 348.28 353.56 345.39 351.06 343.20
  C 347.43 340.00 346.92 334.70 347.07 330.00
  Q 349.69 248.74 354.43 162.75
  Q 355.02 152.13 355.90 141.99
  C 356.06 140.24 355.91 137.26 358.43 137.17
  Q 366.50 136.86 376.01 137.25
  C 388.92 137.77 400.71 139.43 408.50 150.63
  C 413.69 158.08 415.19 165.32 416.52 174.22
  A 2.98 2.97 85.7 0 0 419.46 176.76
  L 435.33 176.77
  A 1.67 1.67 0.0 0 0 437.00 175.18
  L 440.29 108.02
  A 2.08 2.07 -88.5 0 0 438.23 105.84
  Q 412.56 105.69 387.77 105.76
  C 371.79 105.80 355.64 106.71 339.75 106.35
  Q 329.72 106.12 319.67 106.33
  Q 307.87 106.58 296.02 106.32
  Q 288.24 106.14 281.27 106.29
  Q 273.74 106.45 266.32 106.44
  C 261.47 106.42 256.68 105.46 251.91 106.43
  C 248.97 107.04 246.08 106.97 243.13 107.02"
/>
<path fill="#ffffff" d="
  M 0.00 0.00
  L 500.00 0.00
  L 500.00 500.00
  L 0.00 500.00
  L 0.00 0.00
  Z
  M 243.13 107.02
  Q 227.64 107.25 215.75 107.46
  C 201.20 107.72 187.36 107.65 173.58 107.59
  C 168.42 107.57 163.49 107.99 158.33 108.17
  C 150.65 108.44 142.90 109.17 135.27 108.93
  Q 129.33 108.73 123.79 109.03
  Q 107.52 109.90 92.29 109.63
  Q 90.26 109.60 90.15 111.63
  C 89.44 125.34 89.09 138.95 87.87 152.48
  Q 86.71 165.44 85.85 176.50
  Q 85.72 178.13 86.02 179.87
  Q 86.11 180.40 86.58 180.65
  Q 88.01 181.41 89.73 181.21
  Q 96.24 180.46 102.67 180.80
  C 105.51 180.95 106.54 177.73 107.12 175.52
  Q 110.06 164.29 113.93 156.90
  C 118.46 148.25 127.57 139.74 137.65 137.70
  Q 141.65 136.89 143.00 136.80
  Q 154.57 136.06 166.98 135.40
  Q 170.18 135.23 170.19 138.44
  Q 170.22 145.01 169.94 152.18
  Q 167.48 214.69 164.93 276.46
  Q 164.20 294.29 161.82 311.76
  C 159.88 325.95 152.15 338.51 139.78 345.82
  Q 133.55 349.49 127.56 352.12
  Q 125.79 352.90 125.53 354.82
  Q 124.67 361.19 124.47 367.90
  A 1.11 1.10 0.8 0 0 125.58 369.03
  Q 159.16 368.97 189.79 369.02
  Q 198.94 369.03 209.74 368.59
  Q 222.97 368.06 236.26 368.29
  Q 239.66 368.35 239.70 365.12
  Q 239.77 359.17 239.47 353.80
  A 3.95 3.94 13.6 0 0 237.52 350.62
  Q 233.78 348.44 230.06 346.14
  Q 217.56 338.43 218.10 323.47
  Q 221.58 227.98 226.82 138.57
  Q 226.89 137.24 228.13 136.71
  C 230.49 135.71 233.70 135.18 236.45 135.14
  Q 242.47 135.07 248.69 134.78
  Q 250.28 134.71 251.67 135.57
  C 253.51 136.71 257.34 136.36 259.32 136.14
  Q 262.11 135.83 264.72 135.80
  Q 276.46 135.66 287.20 135.82
  Q 290.66 135.88 291.21 138.82
  Q 292.36 145.04 292.20 151.10
  Q 290.02 235.08 287.26 315.59
  Q 286.95 324.65 283.72 333.66
  C 281.57 339.64 277.02 344.88 271.10 347.20
  Q 266.17 349.13 260.39 350.76
  Q 259.77 350.93 259.45 351.48
  Q 258.65 352.83 258.56 354.60
  Q 258.20 362.06 258.46 368.19
  A 1.37 1.37 0.0 0 0 259.90 369.50
  Q 262.85 369.35 265.40 369.34
  Q 315.58 369.16 367.68 369.27
  Q 368.48 369.28 368.53 368.48
  Q 368.90 362.23 369.29 356.05
  C 369.45 353.50 368.96 351.20 366.08 350.42
  Q 363.23 349.64 360.51 348.98
  C 357.64 348.28 353.56 345.39 351.06 343.20
  C 347.43 340.00 346.92 334.70 347.07 330.00
  Q 349.69 248.74 354.43 162.75
  Q 355.02 152.13 355.90 141.99
  C 356.06 140.24 355.91 137.26 358.43 137.17
  Q 366.50 136.86 376.01 137.25
  C 388.92 137.77 400.71 139.43 408.50 150.63
  C 413.69 158.08 415.19 165.32 416.52 174.22
  A 2.98 2.97 85.7 0 0 419.46 176.76
  L 435.33 176.77
  A 1.67 1.67 0.0 0 0 437.00 175.18
  L 440.29 108.02
  A 2.08 2.07 -88.5 0 0 438.23 105.84
  Q 412.56 105.69 387.77 105.76
  C 371.79 105.80 355.64 106.71 339.75 106.35
  Q 329.72 106.12 319.67 106.33
  Q 307.87 106.58 296.02 106.32
  Q 288.24 106.14 281.27 106.29
  Q 273.74 106.45 266.32 106.44
  C 261.47 106.42 256.68 105.46 251.91 106.43
  C 248.97 107.04 246.08 106.97 243.13 107.02
  Z"
/>
<path fill="#476d7f" d="
  M 243.13 107.02
  C 246.08 106.97 248.97 107.04 251.91 106.43
  C 256.68 105.46 261.47 106.42 266.32 106.44
  Q 273.74 106.45 281.27 106.29
  Q 288.24 106.14 296.02 106.32
  Q 307.87 106.58 319.67 106.33
  Q 329.72 106.12 339.75 106.35
  C 355.64 106.71 371.79 105.80 387.77 105.76
  Q 412.56 105.69 438.23 105.84
  A 2.08 2.07 -88.5 0 1 440.29 108.02
  L 437.00 175.18
  A 1.67 1.67 0.0 0 1 435.33 176.77
  L 419.46 176.76
  A 2.98 2.97 85.7 0 1 416.52 174.22
  C 415.19 165.32 413.69 158.08 408.50 150.63
  C 400.71 139.43 388.92 137.77 376.01 137.25
  Q 366.50 136.86 358.43 137.17
  C 355.91 137.26 356.06 140.24 355.90 141.99
  Q 355.02 152.13 354.43 162.75
  Q 349.69 248.74 347.07 330.00
  C 346.92 334.70 347.43 340.00 351.06 343.20
  C 353.56 345.39 357.64 348.28 360.51 348.98
  Q 363.23 349.64 366.08 350.42
  C 368.96 351.20 369.45 353.50 369.29 356.05
  Q 368.90 362.23 368.53 368.48
  Q 368.48 369.28 367.68 369.27
  Q 315.58 369.16 265.40 369.34
  Q 262.85 369.35 259.90 369.50
  A 1.37 1.37 0.0 0 1 258.46 368.19
  Q 258.20 362.06 258.56 354.60
  Q 258.65 352.83 259.45 351.48
  Q 259.77 350.93 260.39 350.76
  Q 266.17 349.13 271.10 347.20
  C 277.02 344.88 281.57 339.64 283.72 333.66
  Q 286.95 324.65 287.26 315.59
  Q 290.02 235.08 292.20 151.10
  Q 292.36 145.04 291.21 138.82
  Q 290.66 135.88 287.20 135.82
  Q 276.46 135.66 264.72 135.80
  Q 262.11 135.83 259.32 136.14
  C 257.34 136.36 253.51 136.71 251.67 135.57
  Q 250.28 134.71 248.69 134.78
  Q 242.47 135.07 236.45 135.14
  C 233.70 135.18 230.49 135.71 228.13 136.71
  Q 226.89 137.24 226.82 138.57
  Q 221.58 227.98 218.10 323.47
  Q 217.56 338.43 230.06 346.14
  Q 233.78 348.44 237.52 350.62
  A 3.95 3.94 13.6 0 1 239.47 353.80
  Q 239.77 359.17 239.70 365.12
  Q 239.66 368.35 236.26 368.29
  Q 222.97 368.06 209.74 368.59
  Q 198.94 369.03 189.79 369.02
  Q 159.16 368.97 125.58 369.03
  A 1.11 1.10 0.8 0 1 124.47 367.90
  Q 124.67 361.19 125.53 354.82
  Q 125.79 352.90 127.56 352.12
  Q 133.55 349.49 139.78 345.82
  C 152.15 338.51 159.88 325.95 161.82 311.76
  Q 164.20 294.29 164.93 276.46
  Q 167.48 214.69 169.94 152.18
  Q 170.22 145.01 170.19 138.44
  Q 170.18 135.23 166.98 135.40
  Q 154.57 136.06 143.00 136.80
  Q 141.65 136.89 137.65 137.70
  C 127.57 139.74 118.46 148.25 113.93 156.90
  Q 110.06 164.29 107.12 175.52
  C 106.54 177.73 105.51 180.95 102.67 180.80
  Q 96.24 180.46 89.73 181.21
  Q 88.01 181.41 86.58 180.65
  Q 86.11 180.40 86.02 179.87
  Q 85.72 178.13 85.85 176.50
  Q 86.71 165.44 87.87 152.48
  C 89.09 138.95 89.44 125.34 90.15 111.63
  Q 90.26 109.60 92.29 109.63
  Q 107.52 109.90 123.79 109.03
  Q 129.33 108.73 135.27 108.93
  C 142.90 109.17 150.65 108.44 158.33 108.17
  C 163.49 107.99 168.42 107.57 173.58 107.59
  C 187.36 107.65 201.20 107.72 215.75 107.46
  Q 227.64 107.25 243.13 107.02
  Z"
/>
</svg>
